<svg xmlns="http://www.w3.org/2000/svg" width="1600" height="1100" viewBox="0 0 1600 1100">
<defs><clipPath id="c"><rect x="40" y="40" width="1520" height="1020"/></clipPath></defs>
<style>
line,circle,path{fill:none;stroke:#5c8dff}
.g{stroke-opacity:.065}.G{stroke-opacity:.14}.d{stroke-opacity:.1}.t{stroke-opacity:.3}
.sheet{fill:none;stroke:#5c8dff;stroke-opacity:.19}
text{font-family:Helvetica,Arial,sans-serif;fill:#5c8dff}
.n{font-size:10px;fill-opacity:.5}
</style>
<rect x=".5" y=".5" width="1599" height="1099" rx="18" class="sheet"/>
<g clip-path="url(#c)">
<line x1="40.0" y1="1060.0" x2="2638.1" y2="-440.0" class="d"/>
<line x1="40.0" y1="1060.0" x2="2161.3" y2="-1061.3" class="d"/>
<line x1="40.0" y1="1060.0" x2="1540.0" y2="-1538.1" class="d"/>
<path d="M120 560 A300 300 0 0 1 720 560" class="G"/>
<circle cx="1150" cy="300" r="30" class="G"/>
<circle cx="1150" cy="300" r="60" class="G"/>
<circle cx="1150" cy="300" r="90" class="G"/>
<circle cx="1150" cy="300" r="120" class="G"/>
<circle cx="1150" cy="300" r="150" class="G"/>
<circle cx="1150" cy="300" r="180" class="G"/>
<circle cx="1420" cy="170" r="12" class="G"/>
<circle cx="1500" cy="170" r="12" class="G"/>
<circle cx="1420" cy="250" r="16" class="G"/>
<circle cx="1500" cy="250" r="16" class="G"/>
<circle cx="1420" cy="330" r="20" class="G"/>
<circle cx="1500" cy="330" r="20" class="G"/>
<circle cx="1420" cy="410" r="24" class="G"/>
<circle cx="1500" cy="410" r="24" class="G"/>
<circle cx="1420" cy="490" r="28" class="G"/>
<circle cx="1500" cy="490" r="28" class="G"/>
<circle cx="1050" cy="2425" r="1500" class="d"/>
<circle cx="1050" cy="2460" r="1600" class="d"/>
<circle cx="1050" cy="2495" r="1700" class="d"/>
<circle cx="1050" cy="2530" r="1800" class="d"/>
<circle cx="1050" cy="2565" r="1900" class="d"/>
<circle cx="1050" cy="2600" r="2000" class="d"/>
</g>
<line x1="40.0" y1="40.0" x2="40.0" y2="1060.0" class="G"/>
<line x1="60.0" y1="40.0" x2="60.0" y2="1060.0" class="g"/>
<line x1="80.0" y1="40.0" x2="80.0" y2="1060.0" class="g"/>
<line x1="100.0" y1="40.0" x2="100.0" y2="1060.0" class="g"/>
<line x1="120.0" y1="40.0" x2="120.0" y2="1060.0" class="g"/>
<line x1="140.0" y1="40.0" x2="140.0" y2="1060.0" class="G"/>
<line x1="160.0" y1="40.0" x2="160.0" y2="1060.0" class="g"/>
<line x1="180.0" y1="40.0" x2="180.0" y2="1060.0" class="g"/>
<line x1="200.0" y1="40.0" x2="200.0" y2="1060.0" class="g"/>
<line x1="220.0" y1="40.0" x2="220.0" y2="1060.0" class="g"/>
<line x1="240.0" y1="40.0" x2="240.0" y2="1060.0" class="G"/>
<line x1="260.0" y1="40.0" x2="260.0" y2="1060.0" class="g"/>
<line x1="280.0" y1="40.0" x2="280.0" y2="1060.0" class="g"/>
<line x1="300.0" y1="40.0" x2="300.0" y2="1060.0" class="g"/>
<line x1="320.0" y1="40.0" x2="320.0" y2="1060.0" class="g"/>
<line x1="340.0" y1="40.0" x2="340.0" y2="1060.0" class="G"/>
<line x1="360.0" y1="40.0" x2="360.0" y2="1060.0" class="g"/>
<line x1="380.0" y1="40.0" x2="380.0" y2="1060.0" class="g"/>
<line x1="400.0" y1="40.0" x2="400.0" y2="1060.0" class="g"/>
<line x1="420.0" y1="40.0" x2="420.0" y2="1060.0" class="g"/>
<line x1="440.0" y1="40.0" x2="440.0" y2="1060.0" class="G"/>
<line x1="460.0" y1="40.0" x2="460.0" y2="1060.0" class="g"/>
<line x1="480.0" y1="40.0" x2="480.0" y2="1060.0" class="g"/>
<line x1="500.0" y1="40.0" x2="500.0" y2="1060.0" class="g"/>
<line x1="520.0" y1="40.0" x2="520.0" y2="1060.0" class="g"/>
<line x1="540.0" y1="40.0" x2="540.0" y2="1060.0" class="G"/>
<line x1="560.0" y1="40.0" x2="560.0" y2="1060.0" class="g"/>
<line x1="580.0" y1="40.0" x2="580.0" y2="1060.0" class="g"/>
<line x1="600.0" y1="40.0" x2="600.0" y2="1060.0" class="g"/>
<line x1="620.0" y1="40.0" x2="620.0" y2="1060.0" class="g"/>
<line x1="640.0" y1="40.0" x2="640.0" y2="1060.0" class="G"/>
<line x1="660.0" y1="40.0" x2="660.0" y2="1060.0" class="g"/>
<line x1="680.0" y1="40.0" x2="680.0" y2="1060.0" class="g"/>
<line x1="700.0" y1="40.0" x2="700.0" y2="1060.0" class="g"/>
<line x1="720.0" y1="40.0" x2="720.0" y2="1060.0" class="g"/>
<line x1="740.0" y1="40.0" x2="740.0" y2="1060.0" class="G"/>
<line x1="760.0" y1="40.0" x2="760.0" y2="1060.0" class="g"/>
<line x1="780.0" y1="40.0" x2="780.0" y2="1060.0" class="g"/>
<line x1="800.0" y1="40.0" x2="800.0" y2="1060.0" class="g"/>
<line x1="820.0" y1="40.0" x2="820.0" y2="1060.0" class="g"/>
<line x1="840.0" y1="40.0" x2="840.0" y2="1060.0" class="G"/>
<line x1="860.0" y1="40.0" x2="860.0" y2="1060.0" class="g"/>
<line x1="880.0" y1="40.0" x2="880.0" y2="1060.0" class="g"/>
<line x1="900.0" y1="40.0" x2="900.0" y2="1060.0" class="g"/>
<line x1="920.0" y1="40.0" x2="920.0" y2="1060.0" class="g"/>
<line x1="940.0" y1="40.0" x2="940.0" y2="1060.0" class="G"/>
<line x1="960.0" y1="40.0" x2="960.0" y2="1060.0" class="g"/>
<line x1="980.0" y1="40.0" x2="980.0" y2="1060.0" class="g"/>
<line x1="1000.0" y1="40.0" x2="1000.0" y2="1060.0" class="g"/>
<line x1="1020.0" y1="40.0" x2="1020.0" y2="1060.0" class="g"/>
<line x1="1040.0" y1="40.0" x2="1040.0" y2="1060.0" class="G"/>
<line x1="1060.0" y1="40.0" x2="1060.0" y2="1060.0" class="g"/>
<line x1="1080.0" y1="40.0" x2="1080.0" y2="1060.0" class="g"/>
<line x1="1100.0" y1="40.0" x2="1100.0" y2="1060.0" class="g"/>
<line x1="1120.0" y1="40.0" x2="1120.0" y2="1060.0" class="g"/>
<line x1="1140.0" y1="40.0" x2="1140.0" y2="1060.0" class="G"/>
<line x1="1160.0" y1="40.0" x2="1160.0" y2="1060.0" class="g"/>
<line x1="1180.0" y1="40.0" x2="1180.0" y2="1060.0" class="g"/>
<line x1="1200.0" y1="40.0" x2="1200.0" y2="1060.0" class="g"/>
<line x1="1220.0" y1="40.0" x2="1220.0" y2="1060.0" class="g"/>
<line x1="1240.0" y1="40.0" x2="1240.0" y2="1060.0" class="G"/>
<line x1="1260.0" y1="40.0" x2="1260.0" y2="1060.0" class="g"/>
<line x1="1280.0" y1="40.0" x2="1280.0" y2="1060.0" class="g"/>
<line x1="1300.0" y1="40.0" x2="1300.0" y2="1060.0" class="g"/>
<line x1="1320.0" y1="40.0" x2="1320.0" y2="1060.0" class="g"/>
<line x1="1340.0" y1="40.0" x2="1340.0" y2="1060.0" class="G"/>
<line x1="1360.0" y1="40.0" x2="1360.0" y2="1060.0" class="g"/>
<line x1="1380.0" y1="40.0" x2="1380.0" y2="1060.0" class="g"/>
<line x1="1400.0" y1="40.0" x2="1400.0" y2="1060.0" class="g"/>
<line x1="1420.0" y1="40.0" x2="1420.0" y2="1060.0" class="g"/>
<line x1="1440.0" y1="40.0" x2="1440.0" y2="1060.0" class="G"/>
<line x1="1460.0" y1="40.0" x2="1460.0" y2="1060.0" class="g"/>
<line x1="1480.0" y1="40.0" x2="1480.0" y2="1060.0" class="g"/>
<line x1="1500.0" y1="40.0" x2="1500.0" y2="1060.0" class="g"/>
<line x1="1520.0" y1="40.0" x2="1520.0" y2="1060.0" class="g"/>
<line x1="1540.0" y1="40.0" x2="1540.0" y2="1060.0" class="G"/>
<line x1="1560.0" y1="40.0" x2="1560.0" y2="1060.0" class="g"/>
<line x1="40.0" y1="40.0" x2="1560.0" y2="40.0" class="G"/>
<line x1="40.0" y1="60.0" x2="1560.0" y2="60.0" class="g"/>
<line x1="40.0" y1="80.0" x2="1560.0" y2="80.0" class="g"/>
<line x1="40.0" y1="100.0" x2="1560.0" y2="100.0" class="g"/>
<line x1="40.0" y1="120.0" x2="1560.0" y2="120.0" class="g"/>
<line x1="40.0" y1="140.0" x2="1560.0" y2="140.0" class="G"/>
<line x1="40.0" y1="160.0" x2="1560.0" y2="160.0" class="g"/>
<line x1="40.0" y1="180.0" x2="1560.0" y2="180.0" class="g"/>
<line x1="40.0" y1="200.0" x2="1560.0" y2="200.0" class="g"/>
<line x1="40.0" y1="220.0" x2="1560.0" y2="220.0" class="g"/>
<line x1="40.0" y1="240.0" x2="1560.0" y2="240.0" class="G"/>
<line x1="40.0" y1="260.0" x2="1560.0" y2="260.0" class="g"/>
<line x1="40.0" y1="280.0" x2="1560.0" y2="280.0" class="g"/>
<line x1="40.0" y1="300.0" x2="1560.0" y2="300.0" class="g"/>
<line x1="40.0" y1="320.0" x2="1560.0" y2="320.0" class="g"/>
<line x1="40.0" y1="340.0" x2="1560.0" y2="340.0" class="G"/>
<line x1="40.0" y1="360.0" x2="1560.0" y2="360.0" class="g"/>
<line x1="40.0" y1="380.0" x2="1560.0" y2="380.0" class="g"/>
<line x1="40.0" y1="400.0" x2="1560.0" y2="400.0" class="g"/>
<line x1="40.0" y1="420.0" x2="1560.0" y2="420.0" class="g"/>
<line x1="40.0" y1="440.0" x2="1560.0" y2="440.0" class="G"/>
<line x1="40.0" y1="460.0" x2="1560.0" y2="460.0" class="g"/>
<line x1="40.0" y1="480.0" x2="1560.0" y2="480.0" class="g"/>
<line x1="40.0" y1="500.0" x2="1560.0" y2="500.0" class="g"/>
<line x1="40.0" y1="520.0" x2="1560.0" y2="520.0" class="g"/>
<line x1="40.0" y1="540.0" x2="1560.0" y2="540.0" class="G"/>
<line x1="40.0" y1="560.0" x2="1560.0" y2="560.0" class="g"/>
<line x1="40.0" y1="580.0" x2="1560.0" y2="580.0" class="g"/>
<line x1="40.0" y1="600.0" x2="1560.0" y2="600.0" class="g"/>
<line x1="40.0" y1="620.0" x2="1560.0" y2="620.0" class="g"/>
<line x1="40.0" y1="640.0" x2="1560.0" y2="640.0" class="G"/>
<line x1="40.0" y1="660.0" x2="1560.0" y2="660.0" class="g"/>
<line x1="40.0" y1="680.0" x2="1560.0" y2="680.0" class="g"/>
<line x1="40.0" y1="700.0" x2="1560.0" y2="700.0" class="g"/>
<line x1="40.0" y1="720.0" x2="1560.0" y2="720.0" class="g"/>
<line x1="40.0" y1="740.0" x2="1560.0" y2="740.0" class="G"/>
<line x1="40.0" y1="760.0" x2="1560.0" y2="760.0" class="g"/>
<line x1="40.0" y1="780.0" x2="1560.0" y2="780.0" class="g"/>
<line x1="40.0" y1="800.0" x2="1560.0" y2="800.0" class="g"/>
<line x1="40.0" y1="820.0" x2="1560.0" y2="820.0" class="g"/>
<line x1="40.0" y1="840.0" x2="1560.0" y2="840.0" class="G"/>
<line x1="40.0" y1="860.0" x2="1560.0" y2="860.0" class="g"/>
<line x1="40.0" y1="880.0" x2="1560.0" y2="880.0" class="g"/>
<line x1="40.0" y1="900.0" x2="1560.0" y2="900.0" class="g"/>
<line x1="40.0" y1="920.0" x2="1560.0" y2="920.0" class="g"/>
<line x1="40.0" y1="940.0" x2="1560.0" y2="940.0" class="G"/>
<line x1="40.0" y1="960.0" x2="1560.0" y2="960.0" class="g"/>
<line x1="40.0" y1="980.0" x2="1560.0" y2="980.0" class="g"/>
<line x1="40.0" y1="1000.0" x2="1560.0" y2="1000.0" class="g"/>
<line x1="40.0" y1="1020.0" x2="1560.0" y2="1020.0" class="g"/>
<line x1="40.0" y1="1040.0" x2="1560.0" y2="1040.0" class="G"/>
<line x1="40.0" y1="1060.0" x2="1560.0" y2="1060.0" class="g"/>
<line x1="40.0" y1="1060.0" x2="40.0" y2="1072.0" class="t"/>
<line x1="40.0" y1="40.0" x2="40.0" y2="28.0" class="t"/>
<text x="40.0" y="1086.0" class="n" text-anchor="middle">0</text>
<line x1="50.0" y1="1060.0" x2="50.0" y2="1064.0" class="t"/>
<line x1="50.0" y1="40.0" x2="50.0" y2="36.0" class="t"/>
<line x1="60.0" y1="1060.0" x2="60.0" y2="1067.0" class="t"/>
<line x1="60.0" y1="40.0" x2="60.0" y2="33.0" class="t"/>
<line x1="70.0" y1="1060.0" x2="70.0" y2="1064.0" class="t"/>
<line x1="70.0" y1="40.0" x2="70.0" y2="36.0" class="t"/>
<line x1="80.0" y1="1060.0" x2="80.0" y2="1067.0" class="t"/>
<line x1="80.0" y1="40.0" x2="80.0" y2="33.0" class="t"/>
<line x1="90.0" y1="1060.0" x2="90.0" y2="1064.0" class="t"/>
<line x1="90.0" y1="40.0" x2="90.0" y2="36.0" class="t"/>
<line x1="100.0" y1="1060.0" x2="100.0" y2="1067.0" class="t"/>
<line x1="100.0" y1="40.0" x2="100.0" y2="33.0" class="t"/>
<line x1="110.0" y1="1060.0" x2="110.0" y2="1064.0" class="t"/>
<line x1="110.0" y1="40.0" x2="110.0" y2="36.0" class="t"/>
<line x1="120.0" y1="1060.0" x2="120.0" y2="1067.0" class="t"/>
<line x1="120.0" y1="40.0" x2="120.0" y2="33.0" class="t"/>
<line x1="130.0" y1="1060.0" x2="130.0" y2="1064.0" class="t"/>
<line x1="130.0" y1="40.0" x2="130.0" y2="36.0" class="t"/>
<line x1="140.0" y1="1060.0" x2="140.0" y2="1072.0" class="t"/>
<line x1="140.0" y1="40.0" x2="140.0" y2="28.0" class="t"/>
<text x="140.0" y="1086.0" class="n" text-anchor="middle">5</text>
<line x1="150.0" y1="1060.0" x2="150.0" y2="1064.0" class="t"/>
<line x1="150.0" y1="40.0" x2="150.0" y2="36.0" class="t"/>
<line x1="160.0" y1="1060.0" x2="160.0" y2="1067.0" class="t"/>
<line x1="160.0" y1="40.0" x2="160.0" y2="33.0" class="t"/>
<line x1="170.0" y1="1060.0" x2="170.0" y2="1064.0" class="t"/>
<line x1="170.0" y1="40.0" x2="170.0" y2="36.0" class="t"/>
<line x1="180.0" y1="1060.0" x2="180.0" y2="1067.0" class="t"/>
<line x1="180.0" y1="40.0" x2="180.0" y2="33.0" class="t"/>
<line x1="190.0" y1="1060.0" x2="190.0" y2="1064.0" class="t"/>
<line x1="190.0" y1="40.0" x2="190.0" y2="36.0" class="t"/>
<line x1="200.0" y1="1060.0" x2="200.0" y2="1067.0" class="t"/>
<line x1="200.0" y1="40.0" x2="200.0" y2="33.0" class="t"/>
<line x1="210.0" y1="1060.0" x2="210.0" y2="1064.0" class="t"/>
<line x1="210.0" y1="40.0" x2="210.0" y2="36.0" class="t"/>
<line x1="220.0" y1="1060.0" x2="220.0" y2="1067.0" class="t"/>
<line x1="220.0" y1="40.0" x2="220.0" y2="33.0" class="t"/>
<line x1="230.0" y1="1060.0" x2="230.0" y2="1064.0" class="t"/>
<line x1="230.0" y1="40.0" x2="230.0" y2="36.0" class="t"/>
<line x1="240.0" y1="1060.0" x2="240.0" y2="1072.0" class="t"/>
<line x1="240.0" y1="40.0" x2="240.0" y2="28.0" class="t"/>
<text x="240.0" y="1086.0" class="n" text-anchor="middle">10</text>
<line x1="250.0" y1="1060.0" x2="250.0" y2="1064.0" class="t"/>
<line x1="250.0" y1="40.0" x2="250.0" y2="36.0" class="t"/>
<line x1="260.0" y1="1060.0" x2="260.0" y2="1067.0" class="t"/>
<line x1="260.0" y1="40.0" x2="260.0" y2="33.0" class="t"/>
<line x1="270.0" y1="1060.0" x2="270.0" y2="1064.0" class="t"/>
<line x1="270.0" y1="40.0" x2="270.0" y2="36.0" class="t"/>
<line x1="280.0" y1="1060.0" x2="280.0" y2="1067.0" class="t"/>
<line x1="280.0" y1="40.0" x2="280.0" y2="33.0" class="t"/>
<line x1="290.0" y1="1060.0" x2="290.0" y2="1064.0" class="t"/>
<line x1="290.0" y1="40.0" x2="290.0" y2="36.0" class="t"/>
<line x1="300.0" y1="1060.0" x2="300.0" y2="1067.0" class="t"/>
<line x1="300.0" y1="40.0" x2="300.0" y2="33.0" class="t"/>
<line x1="310.0" y1="1060.0" x2="310.0" y2="1064.0" class="t"/>
<line x1="310.0" y1="40.0" x2="310.0" y2="36.0" class="t"/>
<line x1="320.0" y1="1060.0" x2="320.0" y2="1067.0" class="t"/>
<line x1="320.0" y1="40.0" x2="320.0" y2="33.0" class="t"/>
<line x1="330.0" y1="1060.0" x2="330.0" y2="1064.0" class="t"/>
<line x1="330.0" y1="40.0" x2="330.0" y2="36.0" class="t"/>
<line x1="340.0" y1="1060.0" x2="340.0" y2="1072.0" class="t"/>
<line x1="340.0" y1="40.0" x2="340.0" y2="28.0" class="t"/>
<text x="340.0" y="1086.0" class="n" text-anchor="middle">15</text>
<line x1="350.0" y1="1060.0" x2="350.0" y2="1064.0" class="t"/>
<line x1="350.0" y1="40.0" x2="350.0" y2="36.0" class="t"/>
<line x1="360.0" y1="1060.0" x2="360.0" y2="1067.0" class="t"/>
<line x1="360.0" y1="40.0" x2="360.0" y2="33.0" class="t"/>
<line x1="370.0" y1="1060.0" x2="370.0" y2="1064.0" class="t"/>
<line x1="370.0" y1="40.0" x2="370.0" y2="36.0" class="t"/>
<line x1="380.0" y1="1060.0" x2="380.0" y2="1067.0" class="t"/>
<line x1="380.0" y1="40.0" x2="380.0" y2="33.0" class="t"/>
<line x1="390.0" y1="1060.0" x2="390.0" y2="1064.0" class="t"/>
<line x1="390.0" y1="40.0" x2="390.0" y2="36.0" class="t"/>
<line x1="400.0" y1="1060.0" x2="400.0" y2="1067.0" class="t"/>
<line x1="400.0" y1="40.0" x2="400.0" y2="33.0" class="t"/>
<line x1="410.0" y1="1060.0" x2="410.0" y2="1064.0" class="t"/>
<line x1="410.0" y1="40.0" x2="410.0" y2="36.0" class="t"/>
<line x1="420.0" y1="1060.0" x2="420.0" y2="1067.0" class="t"/>
<line x1="420.0" y1="40.0" x2="420.0" y2="33.0" class="t"/>
<line x1="430.0" y1="1060.0" x2="430.0" y2="1064.0" class="t"/>
<line x1="430.0" y1="40.0" x2="430.0" y2="36.0" class="t"/>
<line x1="440.0" y1="1060.0" x2="440.0" y2="1072.0" class="t"/>
<line x1="440.0" y1="40.0" x2="440.0" y2="28.0" class="t"/>
<text x="440.0" y="1086.0" class="n" text-anchor="middle">20</text>
<line x1="450.0" y1="1060.0" x2="450.0" y2="1064.0" class="t"/>
<line x1="450.0" y1="40.0" x2="450.0" y2="36.0" class="t"/>
<line x1="460.0" y1="1060.0" x2="460.0" y2="1067.0" class="t"/>
<line x1="460.0" y1="40.0" x2="460.0" y2="33.0" class="t"/>
<line x1="470.0" y1="1060.0" x2="470.0" y2="1064.0" class="t"/>
<line x1="470.0" y1="40.0" x2="470.0" y2="36.0" class="t"/>
<line x1="480.0" y1="1060.0" x2="480.0" y2="1067.0" class="t"/>
<line x1="480.0" y1="40.0" x2="480.0" y2="33.0" class="t"/>
<line x1="490.0" y1="1060.0" x2="490.0" y2="1064.0" class="t"/>
<line x1="490.0" y1="40.0" x2="490.0" y2="36.0" class="t"/>
<line x1="500.0" y1="1060.0" x2="500.0" y2="1067.0" class="t"/>
<line x1="500.0" y1="40.0" x2="500.0" y2="33.0" class="t"/>
<line x1="510.0" y1="1060.0" x2="510.0" y2="1064.0" class="t"/>
<line x1="510.0" y1="40.0" x2="510.0" y2="36.0" class="t"/>
<line x1="520.0" y1="1060.0" x2="520.0" y2="1067.0" class="t"/>
<line x1="520.0" y1="40.0" x2="520.0" y2="33.0" class="t"/>
<line x1="530.0" y1="1060.0" x2="530.0" y2="1064.0" class="t"/>
<line x1="530.0" y1="40.0" x2="530.0" y2="36.0" class="t"/>
<line x1="540.0" y1="1060.0" x2="540.0" y2="1072.0" class="t"/>
<line x1="540.0" y1="40.0" x2="540.0" y2="28.0" class="t"/>
<text x="540.0" y="1086.0" class="n" text-anchor="middle">25</text>
<line x1="550.0" y1="1060.0" x2="550.0" y2="1064.0" class="t"/>
<line x1="550.0" y1="40.0" x2="550.0" y2="36.0" class="t"/>
<line x1="560.0" y1="1060.0" x2="560.0" y2="1067.0" class="t"/>
<line x1="560.0" y1="40.0" x2="560.0" y2="33.0" class="t"/>
<line x1="570.0" y1="1060.0" x2="570.0" y2="1064.0" class="t"/>
<line x1="570.0" y1="40.0" x2="570.0" y2="36.0" class="t"/>
<line x1="580.0" y1="1060.0" x2="580.0" y2="1067.0" class="t"/>
<line x1="580.0" y1="40.0" x2="580.0" y2="33.0" class="t"/>
<line x1="590.0" y1="1060.0" x2="590.0" y2="1064.0" class="t"/>
<line x1="590.0" y1="40.0" x2="590.0" y2="36.0" class="t"/>
<line x1="600.0" y1="1060.0" x2="600.0" y2="1067.0" class="t"/>
<line x1="600.0" y1="40.0" x2="600.0" y2="33.0" class="t"/>
<line x1="610.0" y1="1060.0" x2="610.0" y2="1064.0" class="t"/>
<line x1="610.0" y1="40.0" x2="610.0" y2="36.0" class="t"/>
<line x1="620.0" y1="1060.0" x2="620.0" y2="1067.0" class="t"/>
<line x1="620.0" y1="40.0" x2="620.0" y2="33.0" class="t"/>
<line x1="630.0" y1="1060.0" x2="630.0" y2="1064.0" class="t"/>
<line x1="630.0" y1="40.0" x2="630.0" y2="36.0" class="t"/>
<line x1="640.0" y1="1060.0" x2="640.0" y2="1072.0" class="t"/>
<line x1="640.0" y1="40.0" x2="640.0" y2="28.0" class="t"/>
<text x="640.0" y="1086.0" class="n" text-anchor="middle">30</text>
<line x1="650.0" y1="1060.0" x2="650.0" y2="1064.0" class="t"/>
<line x1="650.0" y1="40.0" x2="650.0" y2="36.0" class="t"/>
<line x1="660.0" y1="1060.0" x2="660.0" y2="1067.0" class="t"/>
<line x1="660.0" y1="40.0" x2="660.0" y2="33.0" class="t"/>
<line x1="670.0" y1="1060.0" x2="670.0" y2="1064.0" class="t"/>
<line x1="670.0" y1="40.0" x2="670.0" y2="36.0" class="t"/>
<line x1="680.0" y1="1060.0" x2="680.0" y2="1067.0" class="t"/>
<line x1="680.0" y1="40.0" x2="680.0" y2="33.0" class="t"/>
<line x1="690.0" y1="1060.0" x2="690.0" y2="1064.0" class="t"/>
<line x1="690.0" y1="40.0" x2="690.0" y2="36.0" class="t"/>
<line x1="700.0" y1="1060.0" x2="700.0" y2="1067.0" class="t"/>
<line x1="700.0" y1="40.0" x2="700.0" y2="33.0" class="t"/>
<line x1="710.0" y1="1060.0" x2="710.0" y2="1064.0" class="t"/>
<line x1="710.0" y1="40.0" x2="710.0" y2="36.0" class="t"/>
<line x1="720.0" y1="1060.0" x2="720.0" y2="1067.0" class="t"/>
<line x1="720.0" y1="40.0" x2="720.0" y2="33.0" class="t"/>
<line x1="730.0" y1="1060.0" x2="730.0" y2="1064.0" class="t"/>
<line x1="730.0" y1="40.0" x2="730.0" y2="36.0" class="t"/>
<line x1="740.0" y1="1060.0" x2="740.0" y2="1072.0" class="t"/>
<line x1="740.0" y1="40.0" x2="740.0" y2="28.0" class="t"/>
<text x="740.0" y="1086.0" class="n" text-anchor="middle">35</text>
<line x1="750.0" y1="1060.0" x2="750.0" y2="1064.0" class="t"/>
<line x1="750.0" y1="40.0" x2="750.0" y2="36.0" class="t"/>
<line x1="760.0" y1="1060.0" x2="760.0" y2="1067.0" class="t"/>
<line x1="760.0" y1="40.0" x2="760.0" y2="33.0" class="t"/>
<line x1="770.0" y1="1060.0" x2="770.0" y2="1064.0" class="t"/>
<line x1="770.0" y1="40.0" x2="770.0" y2="36.0" class="t"/>
<line x1="780.0" y1="1060.0" x2="780.0" y2="1067.0" class="t"/>
<line x1="780.0" y1="40.0" x2="780.0" y2="33.0" class="t"/>
<line x1="790.0" y1="1060.0" x2="790.0" y2="1064.0" class="t"/>
<line x1="790.0" y1="40.0" x2="790.0" y2="36.0" class="t"/>
<line x1="800.0" y1="1060.0" x2="800.0" y2="1067.0" class="t"/>
<line x1="800.0" y1="40.0" x2="800.0" y2="33.0" class="t"/>
<line x1="810.0" y1="1060.0" x2="810.0" y2="1064.0" class="t"/>
<line x1="810.0" y1="40.0" x2="810.0" y2="36.0" class="t"/>
<line x1="820.0" y1="1060.0" x2="820.0" y2="1067.0" class="t"/>
<line x1="820.0" y1="40.0" x2="820.0" y2="33.0" class="t"/>
<line x1="830.0" y1="1060.0" x2="830.0" y2="1064.0" class="t"/>
<line x1="830.0" y1="40.0" x2="830.0" y2="36.0" class="t"/>
<line x1="840.0" y1="1060.0" x2="840.0" y2="1072.0" class="t"/>
<line x1="840.0" y1="40.0" x2="840.0" y2="28.0" class="t"/>
<text x="840.0" y="1086.0" class="n" text-anchor="middle">40</text>
<line x1="850.0" y1="1060.0" x2="850.0" y2="1064.0" class="t"/>
<line x1="850.0" y1="40.0" x2="850.0" y2="36.0" class="t"/>
<line x1="860.0" y1="1060.0" x2="860.0" y2="1067.0" class="t"/>
<line x1="860.0" y1="40.0" x2="860.0" y2="33.0" class="t"/>
<line x1="870.0" y1="1060.0" x2="870.0" y2="1064.0" class="t"/>
<line x1="870.0" y1="40.0" x2="870.0" y2="36.0" class="t"/>
<line x1="880.0" y1="1060.0" x2="880.0" y2="1067.0" class="t"/>
<line x1="880.0" y1="40.0" x2="880.0" y2="33.0" class="t"/>
<line x1="890.0" y1="1060.0" x2="890.0" y2="1064.0" class="t"/>
<line x1="890.0" y1="40.0" x2="890.0" y2="36.0" class="t"/>
<line x1="900.0" y1="1060.0" x2="900.0" y2="1067.0" class="t"/>
<line x1="900.0" y1="40.0" x2="900.0" y2="33.0" class="t"/>
<line x1="910.0" y1="1060.0" x2="910.0" y2="1064.0" class="t"/>
<line x1="910.0" y1="40.0" x2="910.0" y2="36.0" class="t"/>
<line x1="920.0" y1="1060.0" x2="920.0" y2="1067.0" class="t"/>
<line x1="920.0" y1="40.0" x2="920.0" y2="33.0" class="t"/>
<line x1="930.0" y1="1060.0" x2="930.0" y2="1064.0" class="t"/>
<line x1="930.0" y1="40.0" x2="930.0" y2="36.0" class="t"/>
<line x1="940.0" y1="1060.0" x2="940.0" y2="1072.0" class="t"/>
<line x1="940.0" y1="40.0" x2="940.0" y2="28.0" class="t"/>
<text x="940.0" y="1086.0" class="n" text-anchor="middle">45</text>
<line x1="950.0" y1="1060.0" x2="950.0" y2="1064.0" class="t"/>
<line x1="950.0" y1="40.0" x2="950.0" y2="36.0" class="t"/>
<line x1="960.0" y1="1060.0" x2="960.0" y2="1067.0" class="t"/>
<line x1="960.0" y1="40.0" x2="960.0" y2="33.0" class="t"/>
<line x1="970.0" y1="1060.0" x2="970.0" y2="1064.0" class="t"/>
<line x1="970.0" y1="40.0" x2="970.0" y2="36.0" class="t"/>
<line x1="980.0" y1="1060.0" x2="980.0" y2="1067.0" class="t"/>
<line x1="980.0" y1="40.0" x2="980.0" y2="33.0" class="t"/>
<line x1="990.0" y1="1060.0" x2="990.0" y2="1064.0" class="t"/>
<line x1="990.0" y1="40.0" x2="990.0" y2="36.0" class="t"/>
<line x1="1000.0" y1="1060.0" x2="1000.0" y2="1067.0" class="t"/>
<line x1="1000.0" y1="40.0" x2="1000.0" y2="33.0" class="t"/>
<line x1="1010.0" y1="1060.0" x2="1010.0" y2="1064.0" class="t"/>
<line x1="1010.0" y1="40.0" x2="1010.0" y2="36.0" class="t"/>
<line x1="1020.0" y1="1060.0" x2="1020.0" y2="1067.0" class="t"/>
<line x1="1020.0" y1="40.0" x2="1020.0" y2="33.0" class="t"/>
<line x1="1030.0" y1="1060.0" x2="1030.0" y2="1064.0" class="t"/>
<line x1="1030.0" y1="40.0" x2="1030.0" y2="36.0" class="t"/>
<line x1="1040.0" y1="1060.0" x2="1040.0" y2="1072.0" class="t"/>
<line x1="1040.0" y1="40.0" x2="1040.0" y2="28.0" class="t"/>
<text x="1040.0" y="1086.0" class="n" text-anchor="middle">50</text>
<line x1="1050.0" y1="1060.0" x2="1050.0" y2="1064.0" class="t"/>
<line x1="1050.0" y1="40.0" x2="1050.0" y2="36.0" class="t"/>
<line x1="1060.0" y1="1060.0" x2="1060.0" y2="1067.0" class="t"/>
<line x1="1060.0" y1="40.0" x2="1060.0" y2="33.0" class="t"/>
<line x1="1070.0" y1="1060.0" x2="1070.0" y2="1064.0" class="t"/>
<line x1="1070.0" y1="40.0" x2="1070.0" y2="36.0" class="t"/>
<line x1="1080.0" y1="1060.0" x2="1080.0" y2="1067.0" class="t"/>
<line x1="1080.0" y1="40.0" x2="1080.0" y2="33.0" class="t"/>
<line x1="1090.0" y1="1060.0" x2="1090.0" y2="1064.0" class="t"/>
<line x1="1090.0" y1="40.0" x2="1090.0" y2="36.0" class="t"/>
<line x1="1100.0" y1="1060.0" x2="1100.0" y2="1067.0" class="t"/>
<line x1="1100.0" y1="40.0" x2="1100.0" y2="33.0" class="t"/>
<line x1="1110.0" y1="1060.0" x2="1110.0" y2="1064.0" class="t"/>
<line x1="1110.0" y1="40.0" x2="1110.0" y2="36.0" class="t"/>
<line x1="1120.0" y1="1060.0" x2="1120.0" y2="1067.0" class="t"/>
<line x1="1120.0" y1="40.0" x2="1120.0" y2="33.0" class="t"/>
<line x1="1130.0" y1="1060.0" x2="1130.0" y2="1064.0" class="t"/>
<line x1="1130.0" y1="40.0" x2="1130.0" y2="36.0" class="t"/>
<line x1="1140.0" y1="1060.0" x2="1140.0" y2="1072.0" class="t"/>
<line x1="1140.0" y1="40.0" x2="1140.0" y2="28.0" class="t"/>
<text x="1140.0" y="1086.0" class="n" text-anchor="middle">55</text>
<line x1="1150.0" y1="1060.0" x2="1150.0" y2="1064.0" class="t"/>
<line x1="1150.0" y1="40.0" x2="1150.0" y2="36.0" class="t"/>
<line x1="1160.0" y1="1060.0" x2="1160.0" y2="1067.0" class="t"/>
<line x1="1160.0" y1="40.0" x2="1160.0" y2="33.0" class="t"/>
<line x1="1170.0" y1="1060.0" x2="1170.0" y2="1064.0" class="t"/>
<line x1="1170.0" y1="40.0" x2="1170.0" y2="36.0" class="t"/>
<line x1="1180.0" y1="1060.0" x2="1180.0" y2="1067.0" class="t"/>
<line x1="1180.0" y1="40.0" x2="1180.0" y2="33.0" class="t"/>
<line x1="1190.0" y1="1060.0" x2="1190.0" y2="1064.0" class="t"/>
<line x1="1190.0" y1="40.0" x2="1190.0" y2="36.0" class="t"/>
<line x1="1200.0" y1="1060.0" x2="1200.0" y2="1067.0" class="t"/>
<line x1="1200.0" y1="40.0" x2="1200.0" y2="33.0" class="t"/>
<line x1="1210.0" y1="1060.0" x2="1210.0" y2="1064.0" class="t"/>
<line x1="1210.0" y1="40.0" x2="1210.0" y2="36.0" class="t"/>
<line x1="1220.0" y1="1060.0" x2="1220.0" y2="1067.0" class="t"/>
<line x1="1220.0" y1="40.0" x2="1220.0" y2="33.0" class="t"/>
<line x1="1230.0" y1="1060.0" x2="1230.0" y2="1064.0" class="t"/>
<line x1="1230.0" y1="40.0" x2="1230.0" y2="36.0" class="t"/>
<line x1="1240.0" y1="1060.0" x2="1240.0" y2="1072.0" class="t"/>
<line x1="1240.0" y1="40.0" x2="1240.0" y2="28.0" class="t"/>
<text x="1240.0" y="1086.0" class="n" text-anchor="middle">60</text>
<line x1="1250.0" y1="1060.0" x2="1250.0" y2="1064.0" class="t"/>
<line x1="1250.0" y1="40.0" x2="1250.0" y2="36.0" class="t"/>
<line x1="1260.0" y1="1060.0" x2="1260.0" y2="1067.0" class="t"/>
<line x1="1260.0" y1="40.0" x2="1260.0" y2="33.0" class="t"/>
<line x1="1270.0" y1="1060.0" x2="1270.0" y2="1064.0" class="t"/>
<line x1="1270.0" y1="40.0" x2="1270.0" y2="36.0" class="t"/>
<line x1="1280.0" y1="1060.0" x2="1280.0" y2="1067.0" class="t"/>
<line x1="1280.0" y1="40.0" x2="1280.0" y2="33.0" class="t"/>
<line x1="1290.0" y1="1060.0" x2="1290.0" y2="1064.0" class="t"/>
<line x1="1290.0" y1="40.0" x2="1290.0" y2="36.0" class="t"/>
<line x1="1300.0" y1="1060.0" x2="1300.0" y2="1067.0" class="t"/>
<line x1="1300.0" y1="40.0" x2="1300.0" y2="33.0" class="t"/>
<line x1="1310.0" y1="1060.0" x2="1310.0" y2="1064.0" class="t"/>
<line x1="1310.0" y1="40.0" x2="1310.0" y2="36.0" class="t"/>
<line x1="1320.0" y1="1060.0" x2="1320.0" y2="1067.0" class="t"/>
<line x1="1320.0" y1="40.0" x2="1320.0" y2="33.0" class="t"/>
<line x1="1330.0" y1="1060.0" x2="1330.0" y2="1064.0" class="t"/>
<line x1="1330.0" y1="40.0" x2="1330.0" y2="36.0" class="t"/>
<line x1="1340.0" y1="1060.0" x2="1340.0" y2="1072.0" class="t"/>
<line x1="1340.0" y1="40.0" x2="1340.0" y2="28.0" class="t"/>
<text x="1340.0" y="1086.0" class="n" text-anchor="middle">65</text>
<line x1="1350.0" y1="1060.0" x2="1350.0" y2="1064.0" class="t"/>
<line x1="1350.0" y1="40.0" x2="1350.0" y2="36.0" class="t"/>
<line x1="1360.0" y1="1060.0" x2="1360.0" y2="1067.0" class="t"/>
<line x1="1360.0" y1="40.0" x2="1360.0" y2="33.0" class="t"/>
<line x1="1370.0" y1="1060.0" x2="1370.0" y2="1064.0" class="t"/>
<line x1="1370.0" y1="40.0" x2="1370.0" y2="36.0" class="t"/>
<line x1="1380.0" y1="1060.0" x2="1380.0" y2="1067.0" class="t"/>
<line x1="1380.0" y1="40.0" x2="1380.0" y2="33.0" class="t"/>
<line x1="1390.0" y1="1060.0" x2="1390.0" y2="1064.0" class="t"/>
<line x1="1390.0" y1="40.0" x2="1390.0" y2="36.0" class="t"/>
<line x1="1400.0" y1="1060.0" x2="1400.0" y2="1067.0" class="t"/>
<line x1="1400.0" y1="40.0" x2="1400.0" y2="33.0" class="t"/>
<line x1="1410.0" y1="1060.0" x2="1410.0" y2="1064.0" class="t"/>
<line x1="1410.0" y1="40.0" x2="1410.0" y2="36.0" class="t"/>
<line x1="1420.0" y1="1060.0" x2="1420.0" y2="1067.0" class="t"/>
<line x1="1420.0" y1="40.0" x2="1420.0" y2="33.0" class="t"/>
<line x1="1430.0" y1="1060.0" x2="1430.0" y2="1064.0" class="t"/>
<line x1="1430.0" y1="40.0" x2="1430.0" y2="36.0" class="t"/>
<line x1="1440.0" y1="1060.0" x2="1440.0" y2="1072.0" class="t"/>
<line x1="1440.0" y1="40.0" x2="1440.0" y2="28.0" class="t"/>
<text x="1440.0" y="1086.0" class="n" text-anchor="middle">70</text>
<line x1="1450.0" y1="1060.0" x2="1450.0" y2="1064.0" class="t"/>
<line x1="1450.0" y1="40.0" x2="1450.0" y2="36.0" class="t"/>
<line x1="1460.0" y1="1060.0" x2="1460.0" y2="1067.0" class="t"/>
<line x1="1460.0" y1="40.0" x2="1460.0" y2="33.0" class="t"/>
<line x1="1470.0" y1="1060.0" x2="1470.0" y2="1064.0" class="t"/>
<line x1="1470.0" y1="40.0" x2="1470.0" y2="36.0" class="t"/>
<line x1="1480.0" y1="1060.0" x2="1480.0" y2="1067.0" class="t"/>
<line x1="1480.0" y1="40.0" x2="1480.0" y2="33.0" class="t"/>
<line x1="1490.0" y1="1060.0" x2="1490.0" y2="1064.0" class="t"/>
<line x1="1490.0" y1="40.0" x2="1490.0" y2="36.0" class="t"/>
<line x1="1500.0" y1="1060.0" x2="1500.0" y2="1067.0" class="t"/>
<line x1="1500.0" y1="40.0" x2="1500.0" y2="33.0" class="t"/>
<line x1="1510.0" y1="1060.0" x2="1510.0" y2="1064.0" class="t"/>
<line x1="1510.0" y1="40.0" x2="1510.0" y2="36.0" class="t"/>
<line x1="1520.0" y1="1060.0" x2="1520.0" y2="1067.0" class="t"/>
<line x1="1520.0" y1="40.0" x2="1520.0" y2="33.0" class="t"/>
<line x1="1530.0" y1="1060.0" x2="1530.0" y2="1064.0" class="t"/>
<line x1="1530.0" y1="40.0" x2="1530.0" y2="36.0" class="t"/>
<line x1="1540.0" y1="1060.0" x2="1540.0" y2="1072.0" class="t"/>
<line x1="1540.0" y1="40.0" x2="1540.0" y2="28.0" class="t"/>
<text x="1540.0" y="1086.0" class="n" text-anchor="middle">75</text>
<line x1="1550.0" y1="1060.0" x2="1550.0" y2="1064.0" class="t"/>
<line x1="1550.0" y1="40.0" x2="1550.0" y2="36.0" class="t"/>
<line x1="1560.0" y1="1060.0" x2="1560.0" y2="1067.0" class="t"/>
<line x1="1560.0" y1="40.0" x2="1560.0" y2="33.0" class="t"/>
<line x1="40.0" y1="1060.0" x2="28.0" y2="1060.0" class="t"/>
<line x1="1560.0" y1="1060.0" x2="1572.0" y2="1060.0" class="t"/>
<line x1="40.0" y1="1050.0" x2="36.0" y2="1050.0" class="t"/>
<line x1="1560.0" y1="1050.0" x2="1564.0" y2="1050.0" class="t"/>
<line x1="40.0" y1="1040.0" x2="33.0" y2="1040.0" class="t"/>
<line x1="1560.0" y1="1040.0" x2="1567.0" y2="1040.0" class="t"/>
<line x1="40.0" y1="1030.0" x2="36.0" y2="1030.0" class="t"/>
<line x1="1560.0" y1="1030.0" x2="1564.0" y2="1030.0" class="t"/>
<line x1="40.0" y1="1020.0" x2="33.0" y2="1020.0" class="t"/>
<line x1="1560.0" y1="1020.0" x2="1567.0" y2="1020.0" class="t"/>
<line x1="40.0" y1="1010.0" x2="36.0" y2="1010.0" class="t"/>
<line x1="1560.0" y1="1010.0" x2="1564.0" y2="1010.0" class="t"/>
<line x1="40.0" y1="1000.0" x2="33.0" y2="1000.0" class="t"/>
<line x1="1560.0" y1="1000.0" x2="1567.0" y2="1000.0" class="t"/>
<line x1="40.0" y1="990.0" x2="36.0" y2="990.0" class="t"/>
<line x1="1560.0" y1="990.0" x2="1564.0" y2="990.0" class="t"/>
<line x1="40.0" y1="980.0" x2="33.0" y2="980.0" class="t"/>
<line x1="1560.0" y1="980.0" x2="1567.0" y2="980.0" class="t"/>
<line x1="40.0" y1="970.0" x2="36.0" y2="970.0" class="t"/>
<line x1="1560.0" y1="970.0" x2="1564.0" y2="970.0" class="t"/>
<line x1="40.0" y1="960.0" x2="28.0" y2="960.0" class="t"/>
<line x1="1560.0" y1="960.0" x2="1572.0" y2="960.0" class="t"/>
<text x="24.0" y="964.0" class="n" text-anchor="end">5</text>
<line x1="40.0" y1="950.0" x2="36.0" y2="950.0" class="t"/>
<line x1="1560.0" y1="950.0" x2="1564.0" y2="950.0" class="t"/>
<line x1="40.0" y1="940.0" x2="33.0" y2="940.0" class="t"/>
<line x1="1560.0" y1="940.0" x2="1567.0" y2="940.0" class="t"/>
<line x1="40.0" y1="930.0" x2="36.0" y2="930.0" class="t"/>
<line x1="1560.0" y1="930.0" x2="1564.0" y2="930.0" class="t"/>
<line x1="40.0" y1="920.0" x2="33.0" y2="920.0" class="t"/>
<line x1="1560.0" y1="920.0" x2="1567.0" y2="920.0" class="t"/>
<line x1="40.0" y1="910.0" x2="36.0" y2="910.0" class="t"/>
<line x1="1560.0" y1="910.0" x2="1564.0" y2="910.0" class="t"/>
<line x1="40.0" y1="900.0" x2="33.0" y2="900.0" class="t"/>
<line x1="1560.0" y1="900.0" x2="1567.0" y2="900.0" class="t"/>
<line x1="40.0" y1="890.0" x2="36.0" y2="890.0" class="t"/>
<line x1="1560.0" y1="890.0" x2="1564.0" y2="890.0" class="t"/>
<line x1="40.0" y1="880.0" x2="33.0" y2="880.0" class="t"/>
<line x1="1560.0" y1="880.0" x2="1567.0" y2="880.0" class="t"/>
<line x1="40.0" y1="870.0" x2="36.0" y2="870.0" class="t"/>
<line x1="1560.0" y1="870.0" x2="1564.0" y2="870.0" class="t"/>
<line x1="40.0" y1="860.0" x2="28.0" y2="860.0" class="t"/>
<line x1="1560.0" y1="860.0" x2="1572.0" y2="860.0" class="t"/>
<text x="24.0" y="864.0" class="n" text-anchor="end">10</text>
<line x1="40.0" y1="850.0" x2="36.0" y2="850.0" class="t"/>
<line x1="1560.0" y1="850.0" x2="1564.0" y2="850.0" class="t"/>
<line x1="40.0" y1="840.0" x2="33.0" y2="840.0" class="t"/>
<line x1="1560.0" y1="840.0" x2="1567.0" y2="840.0" class="t"/>
<line x1="40.0" y1="830.0" x2="36.0" y2="830.0" class="t"/>
<line x1="1560.0" y1="830.0" x2="1564.0" y2="830.0" class="t"/>
<line x1="40.0" y1="820.0" x2="33.0" y2="820.0" class="t"/>
<line x1="1560.0" y1="820.0" x2="1567.0" y2="820.0" class="t"/>
<line x1="40.0" y1="810.0" x2="36.0" y2="810.0" class="t"/>
<line x1="1560.0" y1="810.0" x2="1564.0" y2="810.0" class="t"/>
<line x1="40.0" y1="800.0" x2="33.0" y2="800.0" class="t"/>
<line x1="1560.0" y1="800.0" x2="1567.0" y2="800.0" class="t"/>
<line x1="40.0" y1="790.0" x2="36.0" y2="790.0" class="t"/>
<line x1="1560.0" y1="790.0" x2="1564.0" y2="790.0" class="t"/>
<line x1="40.0" y1="780.0" x2="33.0" y2="780.0" class="t"/>
<line x1="1560.0" y1="780.0" x2="1567.0" y2="780.0" class="t"/>
<line x1="40.0" y1="770.0" x2="36.0" y2="770.0" class="t"/>
<line x1="1560.0" y1="770.0" x2="1564.0" y2="770.0" class="t"/>
<line x1="40.0" y1="760.0" x2="28.0" y2="760.0" class="t"/>
<line x1="1560.0" y1="760.0" x2="1572.0" y2="760.0" class="t"/>
<text x="24.0" y="764.0" class="n" text-anchor="end">15</text>
<line x1="40.0" y1="750.0" x2="36.0" y2="750.0" class="t"/>
<line x1="1560.0" y1="750.0" x2="1564.0" y2="750.0" class="t"/>
<line x1="40.0" y1="740.0" x2="33.0" y2="740.0" class="t"/>
<line x1="1560.0" y1="740.0" x2="1567.0" y2="740.0" class="t"/>
<line x1="40.0" y1="730.0" x2="36.0" y2="730.0" class="t"/>
<line x1="1560.0" y1="730.0" x2="1564.0" y2="730.0" class="t"/>
<line x1="40.0" y1="720.0" x2="33.0" y2="720.0" class="t"/>
<line x1="1560.0" y1="720.0" x2="1567.0" y2="720.0" class="t"/>
<line x1="40.0" y1="710.0" x2="36.0" y2="710.0" class="t"/>
<line x1="1560.0" y1="710.0" x2="1564.0" y2="710.0" class="t"/>
<line x1="40.0" y1="700.0" x2="33.0" y2="700.0" class="t"/>
<line x1="1560.0" y1="700.0" x2="1567.0" y2="700.0" class="t"/>
<line x1="40.0" y1="690.0" x2="36.0" y2="690.0" class="t"/>
<line x1="1560.0" y1="690.0" x2="1564.0" y2="690.0" class="t"/>
<line x1="40.0" y1="680.0" x2="33.0" y2="680.0" class="t"/>
<line x1="1560.0" y1="680.0" x2="1567.0" y2="680.0" class="t"/>
<line x1="40.0" y1="670.0" x2="36.0" y2="670.0" class="t"/>
<line x1="1560.0" y1="670.0" x2="1564.0" y2="670.0" class="t"/>
<line x1="40.0" y1="660.0" x2="28.0" y2="660.0" class="t"/>
<line x1="1560.0" y1="660.0" x2="1572.0" y2="660.0" class="t"/>
<text x="24.0" y="664.0" class="n" text-anchor="end">20</text>
<line x1="40.0" y1="650.0" x2="36.0" y2="650.0" class="t"/>
<line x1="1560.0" y1="650.0" x2="1564.0" y2="650.0" class="t"/>
<line x1="40.0" y1="640.0" x2="33.0" y2="640.0" class="t"/>
<line x1="1560.0" y1="640.0" x2="1567.0" y2="640.0" class="t"/>
<line x1="40.0" y1="630.0" x2="36.0" y2="630.0" class="t"/>
<line x1="1560.0" y1="630.0" x2="1564.0" y2="630.0" class="t"/>
<line x1="40.0" y1="620.0" x2="33.0" y2="620.0" class="t"/>
<line x1="1560.0" y1="620.0" x2="1567.0" y2="620.0" class="t"/>
<line x1="40.0" y1="610.0" x2="36.0" y2="610.0" class="t"/>
<line x1="1560.0" y1="610.0" x2="1564.0" y2="610.0" class="t"/>
<line x1="40.0" y1="600.0" x2="33.0" y2="600.0" class="t"/>
<line x1="1560.0" y1="600.0" x2="1567.0" y2="600.0" class="t"/>
<line x1="40.0" y1="590.0" x2="36.0" y2="590.0" class="t"/>
<line x1="1560.0" y1="590.0" x2="1564.0" y2="590.0" class="t"/>
<line x1="40.0" y1="580.0" x2="33.0" y2="580.0" class="t"/>
<line x1="1560.0" y1="580.0" x2="1567.0" y2="580.0" class="t"/>
<line x1="40.0" y1="570.0" x2="36.0" y2="570.0" class="t"/>
<line x1="1560.0" y1="570.0" x2="1564.0" y2="570.0" class="t"/>
<line x1="40.0" y1="560.0" x2="28.0" y2="560.0" class="t"/>
<line x1="1560.0" y1="560.0" x2="1572.0" y2="560.0" class="t"/>
<text x="24.0" y="564.0" class="n" text-anchor="end">25</text>
<line x1="40.0" y1="550.0" x2="36.0" y2="550.0" class="t"/>
<line x1="1560.0" y1="550.0" x2="1564.0" y2="550.0" class="t"/>
<line x1="40.0" y1="540.0" x2="33.0" y2="540.0" class="t"/>
<line x1="1560.0" y1="540.0" x2="1567.0" y2="540.0" class="t"/>
<line x1="40.0" y1="530.0" x2="36.0" y2="530.0" class="t"/>
<line x1="1560.0" y1="530.0" x2="1564.0" y2="530.0" class="t"/>
<line x1="40.0" y1="520.0" x2="33.0" y2="520.0" class="t"/>
<line x1="1560.0" y1="520.0" x2="1567.0" y2="520.0" class="t"/>
<line x1="40.0" y1="510.0" x2="36.0" y2="510.0" class="t"/>
<line x1="1560.0" y1="510.0" x2="1564.0" y2="510.0" class="t"/>
<line x1="40.0" y1="500.0" x2="33.0" y2="500.0" class="t"/>
<line x1="1560.0" y1="500.0" x2="1567.0" y2="500.0" class="t"/>
<line x1="40.0" y1="490.0" x2="36.0" y2="490.0" class="t"/>
<line x1="1560.0" y1="490.0" x2="1564.0" y2="490.0" class="t"/>
<line x1="40.0" y1="480.0" x2="33.0" y2="480.0" class="t"/>
<line x1="1560.0" y1="480.0" x2="1567.0" y2="480.0" class="t"/>
<line x1="40.0" y1="470.0" x2="36.0" y2="470.0" class="t"/>
<line x1="1560.0" y1="470.0" x2="1564.0" y2="470.0" class="t"/>
<line x1="40.0" y1="460.0" x2="28.0" y2="460.0" class="t"/>
<line x1="1560.0" y1="460.0" x2="1572.0" y2="460.0" class="t"/>
<text x="24.0" y="464.0" class="n" text-anchor="end">30</text>
<line x1="40.0" y1="450.0" x2="36.0" y2="450.0" class="t"/>
<line x1="1560.0" y1="450.0" x2="1564.0" y2="450.0" class="t"/>
<line x1="40.0" y1="440.0" x2="33.0" y2="440.0" class="t"/>
<line x1="1560.0" y1="440.0" x2="1567.0" y2="440.0" class="t"/>
<line x1="40.0" y1="430.0" x2="36.0" y2="430.0" class="t"/>
<line x1="1560.0" y1="430.0" x2="1564.0" y2="430.0" class="t"/>
<line x1="40.0" y1="420.0" x2="33.0" y2="420.0" class="t"/>
<line x1="1560.0" y1="420.0" x2="1567.0" y2="420.0" class="t"/>
<line x1="40.0" y1="410.0" x2="36.0" y2="410.0" class="t"/>
<line x1="1560.0" y1="410.0" x2="1564.0" y2="410.0" class="t"/>
<line x1="40.0" y1="400.0" x2="33.0" y2="400.0" class="t"/>
<line x1="1560.0" y1="400.0" x2="1567.0" y2="400.0" class="t"/>
<line x1="40.0" y1="390.0" x2="36.0" y2="390.0" class="t"/>
<line x1="1560.0" y1="390.0" x2="1564.0" y2="390.0" class="t"/>
<line x1="40.0" y1="380.0" x2="33.0" y2="380.0" class="t"/>
<line x1="1560.0" y1="380.0" x2="1567.0" y2="380.0" class="t"/>
<line x1="40.0" y1="370.0" x2="36.0" y2="370.0" class="t"/>
<line x1="1560.0" y1="370.0" x2="1564.0" y2="370.0" class="t"/>
<line x1="40.0" y1="360.0" x2="28.0" y2="360.0" class="t"/>
<line x1="1560.0" y1="360.0" x2="1572.0" y2="360.0" class="t"/>
<text x="24.0" y="364.0" class="n" text-anchor="end">35</text>
<line x1="40.0" y1="350.0" x2="36.0" y2="350.0" class="t"/>
<line x1="1560.0" y1="350.0" x2="1564.0" y2="350.0" class="t"/>
<line x1="40.0" y1="340.0" x2="33.0" y2="340.0" class="t"/>
<line x1="1560.0" y1="340.0" x2="1567.0" y2="340.0" class="t"/>
<line x1="40.0" y1="330.0" x2="36.0" y2="330.0" class="t"/>
<line x1="1560.0" y1="330.0" x2="1564.0" y2="330.0" class="t"/>
<line x1="40.0" y1="320.0" x2="33.0" y2="320.0" class="t"/>
<line x1="1560.0" y1="320.0" x2="1567.0" y2="320.0" class="t"/>
<line x1="40.0" y1="310.0" x2="36.0" y2="310.0" class="t"/>
<line x1="1560.0" y1="310.0" x2="1564.0" y2="310.0" class="t"/>
<line x1="40.0" y1="300.0" x2="33.0" y2="300.0" class="t"/>
<line x1="1560.0" y1="300.0" x2="1567.0" y2="300.0" class="t"/>
<line x1="40.0" y1="290.0" x2="36.0" y2="290.0" class="t"/>
<line x1="1560.0" y1="290.0" x2="1564.0" y2="290.0" class="t"/>
<line x1="40.0" y1="280.0" x2="33.0" y2="280.0" class="t"/>
<line x1="1560.0" y1="280.0" x2="1567.0" y2="280.0" class="t"/>
<line x1="40.0" y1="270.0" x2="36.0" y2="270.0" class="t"/>
<line x1="1560.0" y1="270.0" x2="1564.0" y2="270.0" class="t"/>
<line x1="40.0" y1="260.0" x2="28.0" y2="260.0" class="t"/>
<line x1="1560.0" y1="260.0" x2="1572.0" y2="260.0" class="t"/>
<text x="24.0" y="264.0" class="n" text-anchor="end">40</text>
<line x1="40.0" y1="250.0" x2="36.0" y2="250.0" class="t"/>
<line x1="1560.0" y1="250.0" x2="1564.0" y2="250.0" class="t"/>
<line x1="40.0" y1="240.0" x2="33.0" y2="240.0" class="t"/>
<line x1="1560.0" y1="240.0" x2="1567.0" y2="240.0" class="t"/>
<line x1="40.0" y1="230.0" x2="36.0" y2="230.0" class="t"/>
<line x1="1560.0" y1="230.0" x2="1564.0" y2="230.0" class="t"/>
<line x1="40.0" y1="220.0" x2="33.0" y2="220.0" class="t"/>
<line x1="1560.0" y1="220.0" x2="1567.0" y2="220.0" class="t"/>
<line x1="40.0" y1="210.0" x2="36.0" y2="210.0" class="t"/>
<line x1="1560.0" y1="210.0" x2="1564.0" y2="210.0" class="t"/>
<line x1="40.0" y1="200.0" x2="33.0" y2="200.0" class="t"/>
<line x1="1560.0" y1="200.0" x2="1567.0" y2="200.0" class="t"/>
<line x1="40.0" y1="190.0" x2="36.0" y2="190.0" class="t"/>
<line x1="1560.0" y1="190.0" x2="1564.0" y2="190.0" class="t"/>
<line x1="40.0" y1="180.0" x2="33.0" y2="180.0" class="t"/>
<line x1="1560.0" y1="180.0" x2="1567.0" y2="180.0" class="t"/>
<line x1="40.0" y1="170.0" x2="36.0" y2="170.0" class="t"/>
<line x1="1560.0" y1="170.0" x2="1564.0" y2="170.0" class="t"/>
<line x1="40.0" y1="160.0" x2="28.0" y2="160.0" class="t"/>
<line x1="1560.0" y1="160.0" x2="1572.0" y2="160.0" class="t"/>
<text x="24.0" y="164.0" class="n" text-anchor="end">45</text>
<line x1="40.0" y1="150.0" x2="36.0" y2="150.0" class="t"/>
<line x1="1560.0" y1="150.0" x2="1564.0" y2="150.0" class="t"/>
<line x1="40.0" y1="140.0" x2="33.0" y2="140.0" class="t"/>
<line x1="1560.0" y1="140.0" x2="1567.0" y2="140.0" class="t"/>
<line x1="40.0" y1="130.0" x2="36.0" y2="130.0" class="t"/>
<line x1="1560.0" y1="130.0" x2="1564.0" y2="130.0" class="t"/>
<line x1="40.0" y1="120.0" x2="33.0" y2="120.0" class="t"/>
<line x1="1560.0" y1="120.0" x2="1567.0" y2="120.0" class="t"/>
<line x1="40.0" y1="110.0" x2="36.0" y2="110.0" class="t"/>
<line x1="1560.0" y1="110.0" x2="1564.0" y2="110.0" class="t"/>
<line x1="40.0" y1="100.0" x2="33.0" y2="100.0" class="t"/>
<line x1="1560.0" y1="100.0" x2="1567.0" y2="100.0" class="t"/>
<line x1="40.0" y1="90.0" x2="36.0" y2="90.0" class="t"/>
<line x1="1560.0" y1="90.0" x2="1564.0" y2="90.0" class="t"/>
<line x1="40.0" y1="80.0" x2="33.0" y2="80.0" class="t"/>
<line x1="1560.0" y1="80.0" x2="1567.0" y2="80.0" class="t"/>
<line x1="40.0" y1="70.0" x2="36.0" y2="70.0" class="t"/>
<line x1="1560.0" y1="70.0" x2="1564.0" y2="70.0" class="t"/>
<line x1="40.0" y1="60.0" x2="28.0" y2="60.0" class="t"/>
<line x1="1560.0" y1="60.0" x2="1572.0" y2="60.0" class="t"/>
<text x="24.0" y="64.0" class="n" text-anchor="end">50</text>
<line x1="40.0" y1="50.0" x2="36.0" y2="50.0" class="t"/>
<line x1="1560.0" y1="50.0" x2="1564.0" y2="50.0" class="t"/>
<line x1="40.0" y1="40.0" x2="33.0" y2="40.0" class="t"/>
<line x1="1560.0" y1="40.0" x2="1567.0" y2="40.0" class="t"/>
<line x1="420.0" y1="560.0" x2="720.0" y2="560.0" class="d"/>
<line x1="720.0" y1="560.0" x2="734.0" y2="560.0" class="t"/>
<text x="750.0" y="564.0" class="n" text-anchor="middle">0</text>
<line x1="718.9" y1="533.9" x2="726.8" y2="533.2" class="t"/>
<line x1="715.4" y1="507.9" x2="729.2" y2="505.5" class="t"/>
<line x1="420.0" y1="560.0" x2="709.8" y2="482.4" class="d"/>
<line x1="709.8" y1="482.4" x2="717.5" y2="480.3" class="t"/>
<line x1="701.9" y1="457.4" x2="715.1" y2="452.6" class="t"/>
<line x1="691.9" y1="433.2" x2="699.1" y2="429.8" class="t"/>
<line x1="420.0" y1="560.0" x2="679.8" y2="410.0" class="d"/>
<line x1="679.8" y1="410.0" x2="691.9" y2="403.0" class="t"/>
<text x="705.8" y="399.0" class="n" text-anchor="middle">30</text>
<line x1="665.7" y1="387.9" x2="672.3" y2="383.3" class="t"/>
<line x1="649.8" y1="367.2" x2="660.5" y2="358.2" class="t"/>
<line x1="420.0" y1="560.0" x2="632.1" y2="347.9" class="d"/>
<line x1="632.1" y1="347.9" x2="637.8" y2="342.2" class="t"/>
<line x1="612.8" y1="330.2" x2="621.8" y2="319.5" class="t"/>
<line x1="592.1" y1="314.3" x2="596.7" y2="307.7" class="t"/>
<line x1="420.0" y1="560.0" x2="570.0" y2="300.2" class="d"/>
<line x1="570.0" y1="300.2" x2="577.0" y2="288.1" class="t"/>
<text x="585.0" y="278.2" class="n" text-anchor="middle">60</text>
<line x1="546.8" y1="288.1" x2="550.2" y2="280.9" class="t"/>
<line x1="522.6" y1="278.1" x2="527.4" y2="264.9" class="t"/>
<line x1="420.0" y1="560.0" x2="497.6" y2="270.2" class="d"/>
<line x1="497.6" y1="270.2" x2="499.7" y2="262.5" class="t"/>
<line x1="472.1" y1="264.6" x2="474.5" y2="250.8" class="t"/>
<line x1="446.1" y1="261.1" x2="446.8" y2="253.2" class="t"/>
<line x1="420.0" y1="560.0" x2="420.0" y2="260.0" class="d"/>
<line x1="420.0" y1="260.0" x2="420.0" y2="246.0" class="t"/>
<text x="420.0" y="234.0" class="n" text-anchor="middle">90</text>
<line x1="393.9" y1="261.1" x2="393.2" y2="253.2" class="t"/>
<line x1="367.9" y1="264.6" x2="365.5" y2="250.8" class="t"/>
<line x1="420.0" y1="560.0" x2="342.4" y2="270.2" class="d"/>
<line x1="342.4" y1="270.2" x2="340.3" y2="262.5" class="t"/>
<line x1="317.4" y1="278.1" x2="312.6" y2="264.9" class="t"/>
<line x1="293.2" y1="288.1" x2="289.8" y2="280.9" class="t"/>
<line x1="420.0" y1="560.0" x2="270.0" y2="300.2" class="d"/>
<line x1="270.0" y1="300.2" x2="263.0" y2="288.1" class="t"/>
<text x="255.0" y="278.2" class="n" text-anchor="middle">120</text>
<line x1="247.9" y1="314.3" x2="243.3" y2="307.7" class="t"/>
<line x1="227.2" y1="330.2" x2="218.2" y2="319.5" class="t"/>
<line x1="420.0" y1="560.0" x2="207.9" y2="347.9" class="d"/>
<line x1="207.9" y1="347.9" x2="202.2" y2="342.2" class="t"/>
<line x1="190.2" y1="367.2" x2="179.5" y2="358.2" class="t"/>
<line x1="174.3" y1="387.9" x2="167.7" y2="383.3" class="t"/>
<line x1="420.0" y1="560.0" x2="160.2" y2="410.0" class="d"/>
<line x1="160.2" y1="410.0" x2="148.1" y2="403.0" class="t"/>
<text x="134.2" y="399.0" class="n" text-anchor="middle">150</text>
<line x1="148.1" y1="433.2" x2="140.9" y2="429.8" class="t"/>
<line x1="138.1" y1="457.4" x2="124.9" y2="452.6" class="t"/>
<line x1="420.0" y1="560.0" x2="130.2" y2="482.4" class="d"/>
<line x1="130.2" y1="482.4" x2="122.5" y2="480.3" class="t"/>
<line x1="124.6" y1="507.9" x2="110.8" y2="505.5" class="t"/>
<line x1="121.1" y1="533.9" x2="113.2" y2="533.2" class="t"/>
<line x1="420.0" y1="560.0" x2="120.0" y2="560.0" class="d"/>
<line x1="120.0" y1="560.0" x2="106.0" y2="560.0" class="t"/>
<text x="90.0" y="564.0" class="n" text-anchor="middle">180</text>
<line x1="950.0" y1="300.0" x2="1350.0" y2="300.0" class="g"/>
<line x1="1150.0" y1="100.0" x2="1150.0" y2="500.0" class="g"/>
<line x1="1402.0" y1="170.0" x2="1438.0" y2="170.0" class="g"/>
<line x1="1482.0" y1="170.0" x2="1518.0" y2="170.0" class="g"/>
<line x1="1398.0" y1="250.0" x2="1442.0" y2="250.0" class="g"/>
<line x1="1478.0" y1="250.0" x2="1522.0" y2="250.0" class="g"/>
<line x1="1394.0" y1="330.0" x2="1446.0" y2="330.0" class="g"/>
<line x1="1474.0" y1="330.0" x2="1526.0" y2="330.0" class="g"/>
<line x1="1390.0" y1="410.0" x2="1450.0" y2="410.0" class="g"/>
<line x1="1470.0" y1="410.0" x2="1530.0" y2="410.0" class="g"/>
<line x1="1386.0" y1="490.0" x2="1454.0" y2="490.0" class="g"/>
<line x1="1466.0" y1="490.0" x2="1534.0" y2="490.0" class="g"/>
</svg>
