<?xml version="1.0" encoding="UTF-8"?>
<svg id="Layer_1" xmlns="http://www.w3.org/2000/svg" version="1.1" viewBox="0 0 100 100">
  <!-- Generator: Adobe Illustrator 30.0.0, SVG Export Plug-In . SVG Version: 2.1.1 Build 123)  -->
  <defs>
    <style>
      .st0 {
        fill: #707d51;
      }

      .st1 {
        fill: #020202;
      }

      .st2 {
        fill: #fefefe;
      }
    </style>
  </defs>
  <path class="st0" d="M92.57,7.12v85.76h-40.95v-21.88c4.17-.31,8.09-2.07,11.37-4.57l.42.31,6.96,6.96v9.98s.11.12.12.12h12.79s.12-.11.12-.12v-12.91h-10.02l-7.36-7.37c1.91-2.51,3.45-5.37,4.14-8.48.75-3.36.78-6.05.08-9.41s-2.2-6.22-4.22-8.8l7.36-7.37h10.02v-13.03h-13.03v10.02l-7.37,7.36c-1.44-1.1-2.96-2.1-4.62-2.85-2.15-.97-4.42-1.52-6.75-1.81V7.12h40.95Z"/>
  <path class="st0" d="M47.68,7.12v21.88c-4.18.46-8.1,2.04-11.37,4.66l-7.37-7.36v-10.02h-13.03v13.03h10.02l7.36,7.37c-2.02,2.58-3.54,5.56-4.22,8.8s-.67,6.06.08,9.41c.69,3.11,2.23,5.96,4.14,8.48l-7.36,7.37h-10.02v12.91s.11.12.12.12h12.79s.12-.11.12-.12v-9.98l6.96-6.96.42-.31c3.28,2.51,7.2,4.26,11.37,4.57v21.88H6.73V7.12h40.95Z"/>
  <g>
    <path class="st1" d="M94.58,5.1v89.86H4.72V5.1h89.86ZM47.68,7.12H6.73v85.76h40.95v-21.88c-4.17-.31-8.09-2.07-11.37-4.57l-.42.31-6.96,6.96v9.98s-.11.12-.12.12h-12.79s-.12-.11-.12-.12v-12.91h10.02l7.36-7.37c-1.91-2.51-3.45-5.37-4.14-8.48-.75-3.36-.78-6.05-.08-9.41s2.2-6.22,4.22-8.8l-7.36-7.37h-10.02v-13.03h13.03v10.02l7.37,7.36c3.27-2.62,7.19-4.2,11.37-4.66V7.12ZM92.57,7.12h-40.95v21.88c2.34.3,4.6.84,6.75,1.81,1.66.75,3.17,1.75,4.62,2.85l7.37-7.36v-10.02h13.03v13.03h-10.02l-7.36,7.37c2.02,2.58,3.54,5.56,4.22,8.8s.67,6.06-.08,9.41c-.69,3.11-2.23,5.96-4.14,8.48l7.36,7.37h10.02v12.91s-.11.12-.12.12h-12.79s-.12-.11-.12-.12v-9.98l-6.96-6.96-.42-.31c-3.28,2.51-7.2,4.26-11.37,4.57v21.88h40.95V7.12ZM66.77,50.02c0-9.45-7.66-17.12-17.12-17.12s-17.12,7.66-17.12,17.12,7.66,17.12,17.12,17.12,17.12-7.66,17.12-17.12Z"/>
    <g>
      <path class="st2" d="M66.77,50.02c0,9.45-7.66,17.12-17.12,17.12s-17.12-7.66-17.12-17.12,7.66-17.12,17.12-17.12,17.12,7.66,17.12,17.12ZM54.6,45.09h-9.89v9.89h9.89v-9.89Z"/>
      <rect class="st1" x="44.7" y="45.09" width="9.89" height="9.89"/>
    </g>
  </g>
</svg>